<?xml version="1.0" standalone="no"?><!DOCTYPE svg PUBLIC "-//W3C//DTD SVG 1.1//EN" "http://www.w3.org/Graphics/SVG/1.1/DTD/svg11.dtd"><svg t="1670252724838" class="icon" viewBox="0 0 1024 1024" version="1.1" xmlns="http://www.w3.org/2000/svg" p-id="4930" data-spm-anchor-id="a313x.7781069.0.i31" xmlns:xlink="http://www.w3.org/1999/xlink" width="64" height="64"><path d="M490.666667 69.717333a42.666667 42.666667 0 0 1 42.666666 0l351.018667 202.666667a42.666667 42.666667 0 0 1 21.333333 36.949333v405.333334a42.666667 42.666667 0 0 1-21.333333 36.949333L533.333333 954.282667a42.666667 42.666667 0 0 1-42.666666 0l-351.04-202.666667a42.666667 42.666667 0 0 1-21.333334-36.949333v-405.333334a42.666667 42.666667 0 0 1 21.333334-36.949333L490.666667 69.717333zM203.626667 333.973333v356.053334L512 868.074667l308.352-178.048v-356.053334L512 155.925333 203.626667 333.973333z" fill="#000000" p-id="4931"></path><path d="M325.077333 357.888l186.858667 105.173333 187.008-105.173333 41.813333 74.389333-207.936 116.906667a42.666667 42.666667 0 0 1-41.813333 0l-207.786667-116.928 41.856-74.368z" fill="#58B2DC" p-id="4932" data-spm-anchor-id="a313x.7781069.0.i30" class="selected"></path><path d="M554.666667 469.333333v256h-85.333334V469.333333h85.333334z" fill="#58B2DC" p-id="4933" data-spm-anchor-id="a313x.7781069.0.i29" class="selected"></path></svg>