<?xml version="1.0" standalone="no"?><!DOCTYPE svg PUBLIC "-//W3C//DTD SVG 1.1//EN" "http://www.w3.org/Graphics/SVG/1.1/DTD/svg11.dtd"><svg t="1670253465779" class="icon" viewBox="0 0 1024 1024" version="1.1" xmlns="http://www.w3.org/2000/svg" p-id="5412" xmlns:xlink="http://www.w3.org/1999/xlink" width="64" height="64"><path d="M448 448h298.666667v85.333333H448v-85.333333z" fill="#F17C67" p-id="5413" data-spm-anchor-id="a313x.7781069.0.i37" class=""></path><path d="M362.666667 533.333333h-85.333334v-85.333333h85.333334v85.333333z" fill="#2EA9DF" p-id="5414" data-spm-anchor-id="a313x.7781069.0.i40" class="selected"></path><path d="M448 618.666667h298.666667v85.333333H448v-85.333333z" fill="#EFBB24" p-id="5415" data-spm-anchor-id="a313x.7781069.0.i35" class=""></path><path d="M362.666667 704h-85.333334v-85.333333h85.333334v85.333333z" fill="#2EA9DF" p-id="5416" data-spm-anchor-id="a313x.7781069.0.i36" class="selected"></path><path d="M106.666667 170.666667a42.666667 42.666667 0 0 1 42.666666-42.666667h256a42.666667 42.666667 0 0 1 35.498667 18.986667L513.493333 256H874.666667a42.666667 42.666667 0 0 1 42.666666 42.666667v554.666666a42.666667 42.666667 0 0 1-42.666666 42.666667H149.333333a42.666667 42.666667 0 0 1-42.666666-42.666667V170.666667z m85.333333 42.666666v597.333334h640V341.333333H490.666667a42.666667 42.666667 0 0 1-35.498667-18.986666L382.506667 213.333333H192z" fill="#000000" p-id="5417"></path></svg>