<?xml version="1.0" standalone="no"?><!DOCTYPE svg PUBLIC "-//W3C//DTD SVG 1.1//EN" "http://www.w3.org/Graphics/SVG/1.1/DTD/svg11.dtd"><svg t="1670252521924" class="icon" viewBox="0 0 1024 1024" version="1.1" xmlns="http://www.w3.org/2000/svg" p-id="4625" data-spm-anchor-id="a313x.7781069.0.i19" xmlns:xlink="http://www.w3.org/1999/xlink" width="64" height="64"><path d="M85.333333 170.666667a42.666667 42.666667 0 0 1 42.666667-42.666667h768a42.666667 42.666667 0 0 1 42.666667 42.666667v512a42.666667 42.666667 0 0 1-18.986667 35.498666l-256 170.666667A42.666667 42.666667 0 0 1 597.333333 853.333333v-128H128a42.666667 42.666667 0 0 1-42.666667-42.666666V170.666667z m85.333334 42.666666v426.666667h469.333333a42.666667 42.666667 0 0 1 42.666667 42.666667v90.944l170.666666-113.770667V213.333333H170.666667z" fill="#000000" p-id="4626"></path><path d="M341.333333 426.666667v-128h85.333334v128h-85.333334zM597.333333 426.666667v-128h85.333334v128h-85.333334z" fill="#d75bf2" p-id="4627" data-spm-anchor-id="a313x.7781069.0.i20" class="selected"></path></svg>